# xmcd
#
# Track frame offsets:
#	150
#	11600
#	23240
#	36120
#	46233
#	57533
#	68728
#	79122
#	87741
#	98760
#	111286
#	125567
#	135833
#	147371
#	158377
#	169585
#
# Disc length: 2409 seconds
#
# Revision: 1
# Processed by: cddbd v1.5.1PL0 Copyright (c) Steve Scherf et al.
# Submitted via: audiograbber 1.83.01
#
DISCID=cd096710
DTITLE=PATSY CLINE - Walkin' After Midnight
DYEAR=1900
DGENRE=oldies
TTITLE0=Walkin' After Midnight
TTITLE1=A Poor Man's Roses Or Rich Man's Gold
TTITLE2=Life's Railway To Heaven
TTITLE3=Three Cigarettes In An Ashtray
TTITLE4=Crazy Dreams
TTITLE5=Just Out Of Reach
TTITLE6=Lovesick Blues
TTITLE7=Ain't No Wheels On This Ship
TTITLE8=I Can't Forget
TTITLE9=Fingerprints
TTITLE10=Then You'll Know
TTITLE11=Too Many Secrets
TTITLE12=In Care Of The Blues
TTITLE13=Don't Ever Leave Me Again
TTITLE14=That Wonderful Someone
TTITLE15=Hungry For Love
EXTD=
EXTT0=
EXTT1=
EXTT2=
EXTT3=
EXTT4=
EXTT5=
EXTT6=
EXTT7=
EXTT8=
EXTT9=
EXTT10=
EXTT11=
EXTT12=
EXTT13=
EXTT14=
EXTT15=
PLAYORDER=
